# xmcd
#
# Track frame offsets: 
#        150
#        1999
#        18024
#        41899
#        48910
#        62770
#        77969
#        87834
#        100733
#        103810
#        113597
#        137450
#        152547
#        168069
#        183941
#        203189
#        206630
#        225803
#
# Disc length: 3248 seconds
#
# Revision: 0
# Processed by: cddbd v1.5.2PL0 Copyright (c) Steve Scherf et al.
# Submitted via: ExactAudioCopy v0.99pb5
#
DISCID=d10cae12
DTITLE=Amy Winehouse - Frank
DYEAR=2007
DGENRE=Blues
TTITLE0=Intro
TTITLE1=Stronger Than Me
TTITLE2=You Sent Me Flying
TTITLE3=Cherry
TTITLE4=Know You Now
TTITLE5=Fuck me Pumps
TTITLE6=I Heard Love Is Blind
TTITLE7=Moody's Mood For Love
TTITLE8=Teo Licks
TTITLE9=(There Is) No Greater Love
TTITLE10=In My Bed
TTITLE11=Take The Box
TTITLE12=October Song
TTITLE13=What Is It About Men
TTITLE14=Amy, Amy, Amy
TTITLE15=Outro
TTITLE16=Brother
TTITLE17=Mr. Magic (Through The Smoke)
EXTD=
EXTT0=
EXTT1=
EXTT2=
EXTT3=
EXTT4=
EXTT5=
EXTT6=
EXTT7=
EXTT8=
EXTT9=
EXTT10=
EXTT11=
EXTT12=
EXTT13=
EXTT14=
EXTT15=
EXTT16=
EXTT17=
PLAYORDER=
